<svg width="50" height="50" viewBox="0 0 50 50" fill="none" xmlns="http://www.w3.org/2000/svg">
<path d="M34 24C34.5523 24 35 24.4477 35 25C35 25.5523 34.5523 26 34 26V24ZM16.2929 25.7071C15.9024 25.3166 15.9024 24.6834 16.2929 24.2929L22.6569 17.9289C23.0474 17.5384 23.6805 17.5384 24.0711 17.9289C24.4616 18.3195 24.4616 18.9526 24.0711 19.3431L18.4142 25L24.0711 30.6569C24.4616 31.0474 24.4616 31.6805 24.0711 32.0711C23.6805 32.4616 23.0474 32.4616 22.6569 32.0711L16.2929 25.7071ZM34 26H17V24H34V26Z" fill="#33B8C8"/>
<rect x="1" y="1" width="48" height="48" rx="24" stroke="#33B8C8" stroke-width="2"/>
</svg>
